<svg width="172" height="154" xmlns="http://www.w3.org/2000/svg">
  <g fill="none" fill-rule="evenodd">
    <path d="M5.23659732 66.6472093C24.238364-6.50260433 59.0308773 16.3450814 108.031538 2.81624583 165.578433-13.0721621 193.2346 41.2222681 152.932949 91.5314185c-42.227431 52.7131295-48.979512 71.0290205-95.0863777 58.8520145-46.3818288-12.249624-68.8024673-21.401079-52.60997398-83.7362237z" fill="#E1EBF8"/>
    <g fill="#4BA0FF">
      <path d="M92.027118 69.7772c.2553252 0 .4955324-.1204.6500714-.3268.1545389-.2064.2099713-.4816.1478198-.7396C90.9906994 61.2288 83.9222237 56 75.6375939 56 65.91172069 56 58 63.3272 58 72.34l.00839885.258C58.00671908 72.6152 58 72.7528 58 72.77c0 3.5948 1.35557507 7.0004 3.96761874 9.89l.45017859.4816c.63495338.6708 1.33541782 1.29 2.08963493 1.8576l-3.04878409 5.8652c-.18309502.344-.10750533.774.18141525 1.0492.15789846.1376.35779119.2064.5593637.2064.16629731 0 .33091485-.0516.47537515-.1376l6.37305063-4.4892c1.6680124.6192 3.4536088.9976 5.3114354 1.1352.2906003 0 .5358469-.1032.7071835-.3268.1713366-.2064.2318084-.4988.1595782-.7568-.2838812-1.0664-.4283415-2.1328-.4283415-3.1648 0-7.8604 7.7286256-14.4136 17.2294095-14.6028z"/>
      <path d="M92.85 71.48c-8.9046 0-16.15 5.7964-16.15 12.9 0 7.1208 7.2454 12.9 16.15 12.9.8381 0 1.7136-.0516 2.6843-.1892.7701-.1032 1.5334-.2408 2.2712-.43l4.8892 2.2704c.1139.0516.2363.0688.3553.0688.2057 0 .408-.0688.5678-.2236.2516-.2236.3451-.5848.238-.9116l-1.0999-3.3024C106.6795 92.1372 109 88.3704 109 84.38c0-7.1036-7.2454-12.9-16.15-12.9z"/>
    </g>
  </g>
</svg>
