<svg width="172" height="154" xmlns="http://www.w3.org/2000/svg" xmlns:xlink="http://www.w3.org/1999/xlink">
  <defs>
    <rect id="a" x="14.4680851" y="5.0625" width="20.4255319" height="3.375" rx="1.6875"/>
  </defs>
  <g fill="none" fill-rule="evenodd">
    <path d="M5.23659732 66.6472093C24.238364-6.50260433 59.0308773 16.3450814 108.031538 2.81624583 165.578433-13.0721621 193.2346 41.2222681 152.932949 91.5314185c-42.227431 52.7131295-48.979512 71.0290205-95.0863777 58.8520145-46.3818288-12.249624-68.8024673-21.401079-52.60997398-83.7362237z" fill="#FEEBDD"/>
    <path d="M80.25143477 78.08797212l11.8000566-6.81276585c1.62619495-.9388841 3.7056024-.38170856 4.6444865 1.24448641l3.3499999 5.80237004c.9388841 1.62619496.38170855 3.7056024-1.2444864 4.6444865l-11.8000566 6.81276585c-1.62619497.93888411-3.70560241.38170856-4.64448651-1.2444864l-3.3499999-5.80237004c-.9388841-1.62619497-.38170856-3.7056024 1.2444864-4.6444865zm2.43612166 2.51948645c-.40654874.23472103-.54584263.75457288-.3111216 1.16112162L84.8764347 86.098707c.23472102.40654875.75457288.54584263 1.16112162.3111216l10.32781339-5.96276583c.4065487-.234721.5458426-.75457287.31112158-1.16112162l-2.49999988-4.3301268c-.23472102-.40654875-.7545729-.54584262-1.1611216-.31112162l-10.3278134 5.96276584zm21.14925099-16.1365077l11.80005668-6.8127659c1.62619496-.9388841 3.7056024-.38170856 4.64448651 1.24448641l3.3499999 5.80237004c.9388841 1.62619496.38170855 3.7056024-1.24448641 4.6444865l-11.80005668 6.8127659c-1.62619496.9388841-3.70560232.3817085-4.64448642-1.24448645l-3.3499999-5.80237004c-.9388841-1.62619497-.38170864-3.70560236 1.24448632-4.64448646zm2.43612173 2.51948641c-.40654878.23472105-.5458427.75457292-.31112167 1.16112166l2.49999988 4.33012681c.23472103.40654875.7545729.54584262 1.1611217.31112157l10.32781331-5.9627658c.40654878-.23472105.5458427-.75457292.31112167-1.16112167l-2.49999988-4.3301268c-.23472102-.40654875-.7545729-.54584262-1.16112169-.31112157l-10.32781332 5.9627658z" fill="#FE9240"/>
    <g transform="rotate(-30 187.53985715 -104.36274335)">
      <use fill="#FE9240" xlink:href="#a"/>
      <rect stroke="#F9EBE0" stroke-width="1.70000005" x="13.6180851" y="4.21249998" width="22.125532" height="5.07500005" rx="2.53750002"/>
    </g>
    <path d="M96.9747498 99.5838938c-1.1977557-2.3680043-3.7150728-3.9600523-6.2628414-3.9600523-.4956814 0-.989671.0602035-1.5225708.193989l-5.760393 1.8512576c.0592111.4164075.1015047.8528829.1015047 1.3311662v.3311193c0 1.152228-.7917368 2.1539473-1.9235145 2.4332247l-2.8455157.7023741c-.7003826.1739212-1.4244496.2608819-2.1552836.2608819-.5853439 0-1.1689961-.0568589-1.7391143-.1689043l-9.1743351-1.8144665c-.4601548-.0903053-.7562102-.5301253-.664856-.9833239.093046-.4548708.5532008-.749199.9947463-.6555492l9.1743352 1.8127943c1.0421151.2040229 2.1366744.1772658 3.1551051-.0735821l2.8455157-.7023741c.3755675-.0936499.6411715-.4264415.6411715-.8110749v-.3311193c0-.4247691-.0422936-.8027133-.0964294-1.1672789-.0169175-.1120454-.0321432-.2240908-.0541359-.3327916-.0558276-.272588-.1285726-.5217636-.2131599-.759233-.0321432-.0919775-.0558276-.1923167-.093046-.2809496-.0896625-.2157292-.2047012-.4047013-.3180481-.5936734-.6107201-.9983747-1.588549-1.7341952-2.9977728-2.240908-.0169175-.0066893-.0355267-.0133786-.0524442-.0200678-.3214316-.1137178-.6648559-.2140569-1.0285811-.3060345-.0152258-.0033446-.0304515-.0083616-.0456772-.0133785l-15.6452612-3.5135431c-.2233104-.0535142-.4601547-.0100339-.6547055.1187347-.1911672.1254239-.3231233.32443-.3637252.5485208-.7714359 4.2493635-2.3227664 9.8198594-3.1787896 12.7631416-.1268809.4364753.1218057.8930185.5616595 1.0284764l12.6728646 3.8998488c1.6054664.6003627 2.8539744 1.0251318 4.312259 1.0251318 2.1349826 0 4.5778629-.9047248 10.0811107-3.1355989l11.8422176-5.3012524c.2097764-.0936499.372184-.2675711.4483125-.481628.0761285-.2140569.0625946-.4498539-.0406019-.6538769M58.5002805 86.6068774c-1.8042344-1.694189-9.94882074-2.5952816-11.56241904-2.7589632-.24169932-.0236242-.47999443.053998-.65701365.2143048C46.10212647 84.2208383 46 84.4486426 46 84.6882589v20.2492715c0 .4657332.38127217.8437196.85105396.8437196h6.80843165c.37446374 0 .70467267-.2429913.81530969-.5990409.15489182-.5045444 3.8076154-12.438115 4.2876098-17.8902313.0238295-.2564908-.0731906-.5079193-.2621246-.6851004" fill="#FE9240"/>
  </g>
</svg>
