<svg width="167" height="163" xmlns="http://www.w3.org/2000/svg">
  <g fill="none" fill-rule="evenodd">
    <path d="M28.0058244 64.2931953C70.0662288 14.6177412 65.2599757-11.9088377 114.148127 5.194434c56.359381 19.7170437 60.708773 62.7272618 44.926816 120.811452-17.38844 63.99672-62.7264132 27.893657-116.6181699 16.786218-48.84672253-10.067624-58.0502778-27.005907-14.4509487-78.4989087z" fill="#EAD3FE"/>
    <g fill="#C17FFB">
      <path d="M93.75 65.23994312l6.8-1.36v5.066l-6.8 1.36v-5.066zM92.9 89.1929431c.4709 0 .85-.374.85-.85v-16.303l7.8183-1.56399998c.3961-.068.6817-.425.6817-.833v-6.8c0-.255-.1139-.493-.3111-.646-.1955-.17-.4522-.221-.7055-.187l-8.5 1.7c-.3961.085-.6817.442-.6817.833V88.3429431c0 .476.3791.85.8483.85z"/>
      <path d="M103.95 66.29394312v3.349c0 1.2223-.8619 2.278-2.0502 2.49729998l-6.4498 1.2937v14.909c0 1.411-1.1424 2.55-2.55 2.55-1.4059 0-2.55-1.139-2.55-2.55V70.96894312l-4.5288 1.69999998-7.0193 2.431c5.9568 1.411 10.6981 6.987 10.6981 13.243v23.8c0 .476.3808.85.85.85.4692 0 .85-.374.85-.85v-7.973l3.4-1.7v9.673c0 .476.3808.85.85.85.4692 0 .85-.374.85-.85v-10.523l18.2308-9.112c.2873-.136.4692-.442.4692-.765v-13.6c0-6.052-5.0728-11.37299998-11.05-11.84899998"/>
      <path d="M81.4692 97.7949431c.4199-.221.9299-.051 1.1407.374.2108.425.0408.935-.3791 1.139l-3.4 1.7c-.1207.068-.2499.085-.3808.085-.1547 0-.3111-.0357-.4471-.119-.2499-.153-.4029-.425-.4029-.731v-11.9c0-.323.1819-.612.4692-.748l3.4-1.7c.4199-.221.9299-.051 1.1407.374.2108.425.0408.935-.3791 1.139l-2.9308 1.462v9.996l2.1692-1.071zm-8.5 0c.4216-.221.9299-.051 1.1407.374.2108.425.0408.935-.3791 1.139l-3.4 1.7c-.1207.068-.2499.085-.3808.085-.1547 0-.3111-.0357-.4471-.119-.2499-.153-.4029-.425-.4029-.731v-11.9c0-.323.1819-.612.4692-.748l3.4-1.7c.4216-.221.9299-.051 1.1407.374.2108.425.0408.935-.3791 1.139l-2.9308 1.462v9.996l2.1692-1.071zm2.9308-21.352c-6.3393 0-11.9 5.559-11.9 11.9v17c0 .476.3808.85.85.85H82.7v5.95c0 .476.3808.85.85.85.4692 0 .85-.374.85-.85v-5.95h2.55c.4692 0 .85-.374.85-.85v-17c0-6.341-5.5607-11.9-11.9-11.9z"/>
    </g>
  </g>
</svg>
